<mxfile host="app.diagrams.net" modified="2023-03-29T09:19:37.921Z" agent="Mozilla/5.0 (Windows NT 10.0; Win64; x64) AppleWebKit/537.36 (KHTML, like Gecko) Chrome/107.0.0.0 Safari/537.36" version="21.1.1" etag="GYa-3v4pUw4HKskQriu8" type="github">
  <diagram name="第 1 页" id="eQm0vyErTM4MCaVaq70B">
    <mxGraphModel>
      <root>
        <mxCell id="0" />
        <mxCell id="1" parent="0" />
      </root>
    </mxGraphModel>
  </diagram>
</mxfile>
